<?xml version="1.0" encoding="UTF-8"?>
<svg xmlns="http://www.w3.org/2000/svg" xmlns:xlink="http://www.w3.org/1999/xlink" width="25px" height="25px" viewBox="0 0 25 25" version="1.1">
<g id="surface1">
<path style=" stroke:none;fill-rule:nonzero;fill:rgb(0%,0%,0%);fill-opacity:1;" d="M 12.5 25 C 19.402344 25 25 19.402344 25 12.5 C 25 5.597656 19.402344 0 12.5 0 C 5.597656 0 0 5.597656 0 12.5 C 0 19.402344 5.597656 25 12.5 25 Z M 11.328125 16.796875 L 11.328125 13.671875 L 8.203125 13.671875 C 7.554688 13.671875 7.03125 13.148438 7.03125 12.5 C 7.03125 11.851562 7.554688 11.328125 8.203125 11.328125 L 11.328125 11.328125 L 11.328125 8.203125 C 11.328125 7.554688 11.851562 7.03125 12.5 7.03125 C 13.148438 7.03125 13.671875 7.554688 13.671875 8.203125 L 13.671875 11.328125 L 16.796875 11.328125 C 17.445312 11.328125 17.96875 11.851562 17.96875 12.5 C 17.96875 13.148438 17.445312 13.671875 16.796875 13.671875 L 13.671875 13.671875 L 13.671875 16.796875 C 13.671875 17.445312 13.148438 17.96875 12.5 17.96875 C 11.851562 17.96875 11.328125 17.445312 11.328125 16.796875 Z M 11.328125 16.796875 "/>
</g>
</svg>
